# xmcd
#
# Track frame offsets:
#	150
#	10938
#	29233
#	38438
#	59485
#	74455
#	83390
#	100955
#	113745
#	137608
#	150020
#	162413
#	173358
#	196263
#
# Disc length: 2954 seconds
#
# Revision: 3
# Processed by: cddbd v1.4PL0 Copyright (c) Steve Scherf et al.
# Submitted via: dBpowerAMP V4.0
#
DISCID=a40b880e
DTITLE=Frederic Chopin (Maria Joao Pires) - 14 Valses
DYEAR=1985
DGENRE=Classical
TTITLE0=No. 4- Valse brillante
TTITLE1=No. 5- Grande Valse
TTITLE2=No. 6 (Op. 64 no. 1)
TTITLE3=No. 9 (Op. 69 no. 1)
TTITLE4=No. 7 (Op. 64 no. 2)
TTITLE5=No. 11 (Op. 70 no. 1)
TTITLE6=No. 10 (Op. 69 no. 2)
TTITLE7=No. 14 (Op. Posth)
TTITLE8=No. 3- Valse brillante (Op. 34 no. 2)
TTITLE9=No. 8 (Op. 64 no. 3)
TTITLE10=No. 12 (Op. 70 No. 2)
TTITLE11=No. 13 (Op. 70 no. 3)
TTITLE12=No. 1- Grande Valse brillante (Op. 18)
TTITLE13=No. 2- Valse brillante (Op. 34 no. 1)
EXTD=
EXTT0=
EXTT1=
EXTT2=
EXTT3=
EXTT4=
EXTT5=
EXTT6=
EXTT7=
EXTT8=
EXTT9=
EXTT10=
EXTT11=
EXTT12=
EXTT13=
PLAYORDER=
